<svg fill="#000000" height="800px" width="800px" version="1.1" id="Capa_1" xmlns="http://www.w3.org/2000/svg" xmlns:xlink="http://www.w3.org/1999/xlink" 
	 viewBox="0 0 494.62 494.62" xml:space="preserve">
<path d="M494.187,281.557c-7.927-31.877-34.879-55.44-67.553-59.021l-198.043-21.712c-26.031-2.856-51.347-10.245-74.81-21.854
	l-16.063-7.941c-45.907-22.71-101.456-9.492-132.215,31.471c-3.508,4.682-5.26,10.311-5.358,16.035H0v41.043
	c0,5.859,3.889,10.807,9.228,12.398c1.906,0.568,3.929-0.355,4.755-2.164c2.568-5.622,7.05-10.185,12.696-12.834
	c6.527-3.069,14.029-3.303,20.739-0.666l14.173,5.585l-4.026,10.037c-1.314,3.281-0.454,7.188,2.388,9.58
	c3.572,2.999,8.885,2.535,11.868-1.021l9.21-10.936l17.356,6.835l-5.324,13.292c-1.314,3.277-0.454,7.184,2.388,9.58
	c3.574,2.996,8.881,2.531,11.868-1.024l11.628-13.811c5.439,2.11,10.979,3.972,16.563,5.644l-6.95,17.352
	c-1.313,3.277-0.453,7.177,2.389,9.58c3.57,2.996,8.881,2.535,11.87-1.024l16.904-20.085c10.926,1.986,22.02,3.029,33.158,3.369
	l3.262,27.971c0.44,3.768,3.413,6.884,7.341,7.341c4.598,0.534,8.754-2.747,9.291-7.341l3.229-27.638l30.139,0.033l3.229,27.605
	c0.44,3.768,3.414,6.884,7.342,7.341c4.596,0.534,8.754-2.747,9.288-7.341l3.233-27.583l30.168,0.033l3.219,27.55
	c0.437,3.768,3.409,6.884,7.337,7.341c4.599,0.534,8.754-2.747,9.291-7.341l3.216-27.524l30.187,0.033l3.215,27.491
	c0.438,3.768,3.409,6.884,7.337,7.341c4.598,0.534,8.752-2.747,9.291-7.341l3.215-27.47l30.95,0.033l2.437,20.779
	c0.437,3.767,3.409,6.884,7.337,7.337c4.598,0.538,8.754-2.744,9.291-7.337l2.418-20.761l51.72,0.055
	c4.546,0,8.833-2.085,11.643-5.666C494.282,290.623,495.275,285.964,494.187,281.557z"/>
</svg>